<?xml version="1.0" standalone="no"?>
<!DOCTYPE svg PUBLIC "-//W3C//DTD SVG 20010904//EN"
 "http://www.w3.org/TR/2001/REC-SVG-20010904/DTD/svg10.dtd">
<svg version="1.0" xmlns="http://www.w3.org/2000/svg"
 width="370.000000pt" height="96.000000pt" viewBox="0 0 370.000000 96.000000"
 preserveAspectRatio="xMidYMid meet">

<g transform="translate(0.000000,96.000000) scale(0.100000,-0.100000)"
fill="#000000" stroke="none">
<path d="M174 679 c-3 -6 21 -38 55 -73 33 -34 61 -67 61 -73 0 -32 -28 -19
-89 41 -55 54 -70 65 -79 53 -9 -10 2 -27 53 -77 36 -36 65 -70 65 -77 0 -29
-39 -10 -95 47 -58 58 -85 73 -85 47 0 -22 144 -181 173 -191 19 -7 37 -6 57
1 27 10 32 9 54 -18 l25 -29 28 25 28 25 -28 21 c-25 19 -27 25 -21 68 7 56
-7 77 -114 165 -74 60 -77 62 -88 45z"/>
<path d="M646 666 c-82 -31 -143 -123 -132 -200 l6 -41 -175 -155 c-96 -85
-178 -163 -181 -174 -8 -25 27 -70 58 -74 22 -3 48 23 184 177 l159 181 46 -6
c141 -18 271 185 175 275 -30 28 -89 35 -140 17z"/>
<path d="M2210 555 l0 -105 -42 21 c-100 51 -211 -19 -211 -133 0 -101 54
-158 149 -158 37 0 59 6 78 21 l26 20 0 -20 c0 -17 6 -21 30 -21 l30 0 0 240
0 240 -30 0 -30 0 0 -105z m-61 -126 c65 -23 83 -119 32 -170 -55 -55 -141
-32 -161 43 -9 32 -8 46 7 76 17 34 52 61 79 62 6 0 25 -5 43 -11z"/>
<path d="M1118 628 c-58 -15 -123 -79 -144 -140 -31 -93 1 -211 72 -267 72
-56 180 -63 261 -16 47 28 54 48 24 65 -16 8 -28 5 -57 -15 -70 -48 -173 -26
-221 46 -52 79 -25 212 54 260 45 28 123 28 163 -1 30 -21 32 -21 57 -4 l27
17 -28 22 c-53 42 -129 54 -208 33z"/>
<path d="M3252 621 c-8 -5 -12 -21 -10 -37 4 -35 44 -47 65 -18 17 23 16 29
-3 48 -17 18 -32 20 -52 7z"/>
<path d="M1461 470 c-42 -20 -43 -21 -26 -40 16 -17 19 -18 41 -4 50 33 134
11 134 -36 0 -12 -17 -18 -76 -27 -60 -9 -82 -17 -102 -37 -37 -36 -36 -90 2
-122 36 -31 111 -33 149 -4 25 20 25 20 30 0 3 -12 14 -20 26 -20 20 0 21 5
21 123 l0 123 -30 29 c-39 38 -107 44 -169 15z m146 -177 c-8 -46 -38 -73 -82
-73 -39 0 -67 24 -63 54 4 27 61 56 112 56 l39 0 -6 -37z"/>
<path d="M1831 464 c-30 -25 -31 -25 -31 -5 0 16 -6 21 -25 21 l-25 0 0 -150
0 -150 25 0 c25 0 25 1 25 90 0 126 19 160 91 160 26 0 29 4 29 30 0 26 -3 30
-29 30 -17 0 -42 -11 -60 -26z"/>
<path d="M2404 476 c-40 -18 -45 -27 -29 -49 13 -18 15 -18 39 -2 32 21 92 24
110 4 8 -7 17 -24 21 -36 6 -20 3 -23 -24 -23 -57 0 -134 -22 -158 -46 -46
-46 -22 -124 42 -140 38 -10 104 2 126 22 18 16 19 16 19 -4 0 -17 6 -22 25
-22 l25 0 0 113 c0 69 -5 122 -13 137 -26 52 -117 75 -183 46z m139 -180 c-3
-39 -39 -76 -75 -76 -46 0 -68 17 -68 51 0 24 6 33 33 44 17 8 50 14 72 12 37
-2 40 -4 38 -31z"/>
<path d="M2778 466 c-36 -24 -38 -24 -38 -6 0 16 -7 20 -30 20 l-30 0 0 -235
0 -235 30 0 30 0 0 106 0 105 26 -20 c19 -15 41 -21 78 -21 93 0 148 57 148
151 0 85 -54 147 -133 156 -36 4 -51 0 -81 -21z m119 -48 c30 -25 45 -75 33
-117 -20 -74 -106 -96 -161 -42 -47 48 -36 134 22 168 27 15 83 11 106 -9z"/>
<path d="M3472 474 c-45 -23 -83 -75 -89 -123 -7 -52 26 -123 71 -151 45 -27
127 -27 172 0 35 22 74 91 74 131 0 35 -40 109 -72 132 -37 27 -114 32 -156
11z m135 -66 c44 -41 39 -129 -11 -163 -32 -23 -90 -19 -121 8 -38 33 -45 101
-15 140 41 52 102 58 147 15z"/>
<path d="M3250 330 l0 -150 25 0 25 0 0 150 0 150 -25 0 -25 0 0 -150z"/>
<path d="M495 255 l-27 -35 58 -67 c129 -147 141 -154 182 -110 41 44 31 59
-130 198 l-56 50 -27 -36z"/>
<path d="M3082 248 c-30 -30 -1 -75 43 -64 22 6 26 11 23 39 -2 26 -8 33 -28
35 -14 2 -31 -3 -38 -10z"/>
</g>
</svg>
